<?xml version="1.0" standalone="no"?>
<!DOCTYPE svg PUBLIC "-//W3C//DTD SVG 20010904//EN"
 "http://www.w3.org/TR/2001/REC-SVG-20010904/DTD/svg10.dtd">
<svg version="1.0" xmlns="http://www.w3.org/2000/svg"
 width="700.000000pt" height="700.000000pt" viewBox="0 0 700.000000 700.000000"
 preserveAspectRatio="xMidYMid meet">
<metadata>
Created by potrace 1.11, written by Peter Selinger 2001-2013
</metadata>
<g transform="translate(0.000000,700.000000) scale(0.100000,-0.100000)"
fill="#000000" stroke="none">
<path d="M1316 4843 c9 -15 32 -44 50 -63 82 -90 181 -216 177 -226 -9 -24
-78 -33 -231 -29 -160 4 -193 -2 -187 -32 2 -10 4 -21 4 -25 1 -4 15 -15 31
-25 17 -9 30 -22 30 -28 0 -5 -66 -47 -147 -93 -187 -105 -282 -164 -369 -228
-113 -83 -120 -87 -143 -74 -17 9 -22 8 -27 -4 -3 -9 -4 -21 -1 -28 2 -7 -15
-35 -39 -61 -27 -30 -46 -62 -50 -85 -4 -20 -16 -57 -27 -82 -17 -39 -20 -69
-22 -240 -1 -154 -5 -201 -17 -225 -21 -39 -35 -95 -44 -175 -13 -112 -12
-123 19 -190 31 -69 110 -156 170 -186 18 -9 40 -23 50 -32 14 -12 49 -16 174
-18 85 -2 157 -5 158 -6 2 -2 6 -25 9 -53 29 -225 167 -398 382 -477 48 -18
81 -22 179 -22 142 0 209 19 316 90 120 80 215 221 240 356 l12 67 81 -4 c145
-7 444 -15 781 -20 182 -3 416 -8 520 -10 105 -2 336 -7 515 -11 179 -3 381
-7 450 -9 69 -2 199 -4 290 -5 91 -1 185 -5 209 -9 42 -6 44 -8 58 -54 41
-141 152 -271 288 -337 88 -43 168 -61 265 -59 220 4 423 140 509 342 l19 43
58 1 c58 1 174 43 174 63 0 11 76 40 106 40 64 0 221 113 209 150 -3 10 20 51
61 104 74 99 89 130 98 201 6 44 3 58 -25 110 -26 50 -129 214 -156 250 -38
49 -60 83 -66 97 -8 22 -76 72 -149 109 -51 26 -177 77 -203 83 -5 1 -26 7
-45 14 -19 6 -46 14 -60 17 -166 35 -317 64 -357 70 -26 3 -95 13 -153 21 -58
8 -123 17 -145 20 -116 15 -290 59 -324 83 -55 39 -363 223 -531 317 -217 121
-461 238 -538 258 -32 9 -105 33 -163 55 -176 66 -246 80 -494 98 -205 14
-974 7 -1135 -11 -19 -3 -66 -7 -105 -11 -299 -27 -314 -29 -406 -60 -40 -14
-75 -21 -78 -17 -3 5 -51 60 -107 123 -55 63 -111 126 -124 142 -30 35 -48 35
-24 0z m1859 -208 c193 -7 259 -13 289 -26 16 -6 10 -7 -19 -4 -195 21 -805
21 -1085 0 -113 -8 -196 -15 -240 -20 -25 -2 -77 -7 -117 -10 -40 -4 -83 -8
-97 -9 -47 -6 -27 11 27 22 101 21 297 36 622 48 105 3 191 7 192 8 3 3 269
-2 428 -9z"/>
</g>
</svg>
